<svg width="167" height="244" viewBox="0 0 167 244" fill="none" xmlns="http://www.w3.org/2000/svg">
<path d="M71.8328 2.18452C67.8198 -0.178483 61.3329 -0.624478 55.3099 1.04952C55.3079 1.05152 55.3079 1.05152 55.3059 1.05152C42.5929 4.58452 36.7858 15.2095 39.7638 29.4725C41.4888 37.7485 46.6429 44.1965 54.2709 47.6275C59.0359 49.7675 64.2888 50.4395 68.9468 49.5475C68.9918 50.2735 69.0018 51.0845 69.4418 51.3325C70.0058 51.7385 71.8768 50.7685 72.4728 50.4895C72.3658 49.8605 72.1818 49.2535 71.8838 48.7475C79.5558 45.9465 83.7398 38.3835 83.4098 27.7425C83.1268 18.5095 79.9388 6.94552 71.8328 2.18452Z" fill="#DDE852"/>
<path d="M76.039 12.9685C76.639 12.1035 76.775 11.0755 76.424 10.0735C75.819 8.34352 74.504 7.57752 72.906 8.02152H72.904C72.147 8.23052 71.479 8.70151 71.2 9.21451C70.639 10.2535 71.044 11.7055 71.611 12.7175C72.305 13.9525 73.587 14.4115 74.659 14.1155C75.29 13.9405 75.621 13.5705 76.039 12.9685Z" fill="#FDFFBB"/>
<path opacity="0.25" d="M52.834 40.7045C46.887 33.2305 43.7009 21.4075 44.4269 12.9085C44.4449 12.6875 44.477 12.4675 44.506 12.2465C43.494 13.7655 42.8149 15.4065 42.5629 17.0415C41.3869 24.7235 43.7699 35.1005 49.124 41.4895C53.683 46.9385 62.065 48.6915 66.87 48.6795C63.157 47.2235 56.356 45.1315 52.834 40.7045Z" fill="white"/>
<path d="M70.7539 48.5855L83.1489 167.362" stroke="#373814" stroke-width="0.5" stroke-miterlimit="10" stroke-linecap="round" stroke-linejoin="round"/>
<path d="M70.7539 48.5855C70.0119 49.2365 67.4119 51.6385 68.1799 52.6455C69.1099 53.8605 70.5749 49.2545 70.7539 48.5855ZM70.7539 48.5855C70.5919 49.3315 71.2879 53.1925 72.5509 52.3375C73.6389 51.6035 71.5749 48.4685 70.7539 48.5855Z" stroke="#373814" stroke-width="0.5" stroke-miterlimit="10" stroke-linecap="round" stroke-linejoin="round"/>
<path d="M69.9958 49.2495C69.9958 49.2495 71.6908 48.8455 73.1078 48.0965C73.7808 47.7395 71.9768 49.0705 69.9958 49.2495ZM69.9958 49.2495C69.9958 49.2495 72.2319 49.3135 73.2339 48.6095" stroke="#373814" stroke-width="0.5" stroke-miterlimit="10" stroke-linecap="round" stroke-linejoin="round"/>
<path d="M119.315 5.79553C116.142 2.38753 110.047 0.113534 103.799 0.00453386C103.795 0.00653386 103.795 0.00653386 103.793 0.00453386C90.6018 -0.225466 82.0088 8.30752 80.8048 22.8265C80.1018 31.2505 83.2088 38.8985 89.5448 44.3595C93.5018 47.7665 98.3478 49.9065 103.066 50.3775C102.904 51.0865 102.682 51.8665 103.033 52.2305C103.459 52.7805 105.527 52.3815 106.178 52.2855C106.254 51.6515 106.25 51.0165 106.11 50.4475C114.261 49.9465 120.427 43.8865 123.138 33.5935C125.494 24.6595 125.73 12.6655 119.315 5.79553Z" fill="#FF5F7E"/>
<path d="M120.278 17.3315C121.098 16.6715 121.523 15.7255 121.471 14.6655C121.383 12.8335 120.34 11.7255 118.681 11.6965C118.681 11.6965 118.681 11.6965 118.679 11.6955C117.895 11.6805 117.12 11.9415 116.705 12.3545C115.872 13.1915 115.847 14.6995 116.103 15.8305C116.416 17.2115 117.514 18.0175 118.626 18.0375C119.283 18.0495 119.705 17.7875 120.278 17.3315Z" fill="#FFE1E8"/>
<path opacity="0.25" d="M90.1389 37.3155C86.5629 28.4575 86.8749 16.2155 89.9899 8.27551C90.0689 8.06851 90.1619 7.86651 90.2539 7.66351C88.8519 8.83151 87.7329 10.2115 87.0259 11.7065C83.7129 18.7355 83.0439 29.3615 86.3579 37.0115C89.1759 43.5325 96.7129 47.5995 101.324 48.9555C98.1779 46.5015 92.2549 42.5615 90.1389 37.3155Z" fill="white"/>
<path d="M105.073 49.9695L83.1487 167.362" stroke="#373814" stroke-width="0.5" stroke-miterlimit="10" stroke-linecap="round" stroke-linejoin="round"/>
<path d="M105.073 49.9695C104.176 50.3835 101.001 51.9465 101.451 53.1295C101.994 54.5585 104.711 50.5605 105.073 49.9695ZM105.073 49.9695C104.705 50.6395 104.273 54.5375 105.729 54.0785C106.98 53.6835 105.894 50.0925 105.073 49.9695Z" stroke="#373814" stroke-width="0.5" stroke-miterlimit="10" stroke-linecap="round" stroke-linejoin="round"/>
<path d="M104.159 50.3915C104.159 50.3915 105.898 50.4865 107.47 50.1715C108.216 50.0215 106.109 50.7835 104.159 50.3915ZM104.159 50.3915C104.159 50.3915 106.284 51.0895 107.444 50.7005" stroke="#373814" stroke-width="0.5" stroke-miterlimit="10" stroke-linecap="round" stroke-linejoin="round"/>
<path d="M165.216 45.7455C163.51 41.7775 158.898 37.8885 153.475 35.8395C153.473 35.8405 153.473 35.8405 153.471 35.8385C142.022 31.5155 131.852 36.2815 126.264 48.5865C123.018 55.7245 123.341 63.3735 127.168 70.1225C129.56 74.3345 133.123 77.7165 137.097 79.6015C136.733 80.1695 136.296 80.7825 136.489 81.2085C136.688 81.8215 138.62 82.1205 139.218 82.2395C139.484 81.7095 139.678 81.1545 139.733 80.6125C147.009 82.7225 154.286 79.3555 159.87 71.2145C164.719 64.1505 168.671 53.7495 165.216 45.7455Z" fill="#75D3CC"/>
<path d="M162.452 56.1205C163.376 55.8015 164.042 55.1075 164.328 54.1645C164.823 52.5375 164.26 51.2445 162.819 50.7015C162.819 50.7015 162.819 50.7015 162.817 50.7005C162.137 50.4415 161.379 50.4275 160.888 50.6585C159.899 51.1295 159.406 52.4365 159.276 53.5055C159.119 54.8095 159.826 55.8575 160.791 56.2225C161.359 56.4365 161.809 56.3405 162.452 56.1205Z" fill="#B5F7F0"/>
<path opacity="0.25" d="M129.887 64.1545C129.534 55.3015 133.629 44.7095 138.832 38.7495C138.965 38.5935 139.109 38.4445 139.254 38.2965C137.663 38.8785 136.256 39.7345 135.171 40.8185C130.081 45.9225 126.178 54.9935 126.681 62.7075C127.105 69.2845 132.416 75.1905 136.018 77.8155C134.038 74.6905 130.097 69.3975 129.887 64.1545Z" fill="white"/>
<path d="M138.976 79.8725L83.1489 167.361" stroke="#373814" stroke-width="0.5" stroke-miterlimit="10" stroke-linecap="round" stroke-linejoin="round"/>
<path d="M138.976 79.8725C138.064 79.9545 134.803 80.3255 134.827 81.4995C134.854 82.9185 138.476 80.2745 138.976 79.8725ZM138.976 79.8725C138.447 80.3425 136.852 83.6135 138.266 83.6655C139.481 83.7115 139.655 80.2365 138.976 79.8725Z" stroke="#373814" stroke-width="0.5" stroke-miterlimit="10" stroke-linecap="round" stroke-linejoin="round"/>
<path d="M138.045 79.9555C138.045 79.9555 139.535 80.5815 141.007 80.7975C141.704 80.8985 139.626 80.9075 138.045 79.9555ZM138.045 79.9555C138.045 79.9555 139.682 81.2285 140.818 81.2515" stroke="#373814" stroke-width="0.5" stroke-miterlimit="10" stroke-linecap="round" stroke-linejoin="round"/>
<path d="M25.8258 33.4805C21.6898 32.2385 15.7458 33.2695 10.6898 36.1095C10.6878 36.1115 10.6878 36.1115 10.6878 36.1115C0.0148172 42.1015 -2.87017 52.9565 2.96283 65.1475C6.34383 72.2205 12.4118 76.8895 20.0418 78.2975C24.8068 79.1735 29.6848 78.6175 33.6848 76.7845C33.8878 77.4295 34.0758 78.1575 34.5258 78.2835C35.1238 78.5265 36.5958 77.2385 37.0708 76.8555C36.8368 76.3105 36.5358 75.8065 36.1558 75.4165C42.4498 71.1975 44.5468 63.4605 41.9018 53.9495C39.6048 45.6925 34.1778 35.9805 25.8258 33.4805Z" fill="#6262B5"/>
<path d="M31.9947 42.2675C32.3437 41.3545 32.2417 40.4005 31.7027 39.5745C30.7737 38.1495 29.4227 37.7505 28.0797 38.5045C28.0797 38.5045 28.0797 38.5045 28.0777 38.5035C27.4417 38.8595 26.9437 39.4305 26.8047 39.9565C26.5307 41.0155 27.2137 42.2345 27.9507 43.0205C28.8467 43.9785 30.1057 44.1115 31.0047 43.6075C31.5347 43.3085 31.7497 42.9005 31.9947 42.2675Z" fill="#ACACE2"/>
<path opacity="0.25" d="M17.2179 72.3785C10.2099 66.9585 4.72695 57.0115 3.50595 49.1945C3.47195 48.9925 3.45095 48.7855 3.42995 48.5805C2.85395 50.1725 2.60395 51.8015 2.73895 53.3295C3.37795 60.5085 7.81495 69.3305 14.049 73.9035C19.361 77.8065 27.2979 77.5345 31.6239 76.4625C27.9569 75.9695 21.3699 75.5875 17.2179 72.3785Z" fill="white"/>
<path d="M34.6438 75.7035L83.1488 167.362" stroke="#373814" stroke-width="0.5" stroke-miterlimit="10" stroke-linecap="round" stroke-linejoin="round"/>
<path d="M34.6438 75.7035C34.2828 76.5445 33.0638 79.5925 34.1078 80.1295C35.3698 80.7765 34.7598 76.3345 34.6438 75.7035ZM34.6438 75.7035C34.8058 76.3925 36.9298 79.3485 37.6468 78.1275C38.2618 77.0785 35.2848 75.2785 34.6438 75.7035Z" stroke="#373814" stroke-width="0.5" stroke-miterlimit="10" stroke-linecap="round" stroke-linejoin="round"/>
<path d="M34.2749 76.5625C34.2749 76.5625 35.5319 75.5485 36.4209 74.3545C36.8409 73.7875 35.8629 75.6215 34.2749 76.5625ZM34.2749 76.5625C34.2749 76.5625 36.1729 75.7255 36.7309 74.7355" stroke="#373814" stroke-width="0.5" stroke-miterlimit="10" stroke-linecap="round" stroke-linejoin="round"/>
<path d="M94.5329 27.1125C91.7219 24.2005 86.3969 22.3205 80.9679 22.3195H80.9659C69.5059 22.3195 62.1729 29.8585 61.3449 42.4865C60.8629 49.8135 63.6749 56.4075 69.2619 61.0535C72.7499 63.9525 76.9919 65.7375 81.0969 66.0755C80.9639 66.6925 80.7829 67.3735 81.0939 67.6835C81.4719 68.1555 83.2629 67.7775 83.8269 67.6835C83.8829 67.1325 83.8699 66.5815 83.7389 66.0875C90.8099 65.5295 96.0709 60.1745 98.2719 51.1935C100.182 43.4015 100.204 32.9835 94.5329 27.1125Z" fill="#75D3CC"/>
<path d="M94.2108 37.6665C94.9118 37.0825 95.2668 36.2535 95.2058 35.3325C95.1018 33.7445 94.1798 32.7975 92.7388 32.7975C92.0558 32.7975 91.3858 33.0335 91.0328 33.4005C90.3208 34.1385 90.3228 35.4485 90.5628 36.4275C90.8558 37.6205 91.8208 38.3055 92.7868 38.3055C93.3578 38.3055 93.7218 38.0725 94.2108 37.6665Z" fill="#B5F7F0"/>
<path opacity="0.25" d="M69.668 54.9265C66.43 47.2895 66.516 36.6545 69.102 29.7115C69.168 29.5305 69.245 29.3525 69.323 29.1765C68.124 30.2115 67.169 31.4265 66.581 32.7345C63.808 38.8905 63.392 48.1295 66.382 54.7195C68.931 60.3395 75.536 63.7595 79.56 64.8655C76.791 62.7815 71.587 59.4505 69.668 54.9265Z" fill="white"/>
<path d="M81.8748 66.0135L83.1487 167.362" stroke="#373814" stroke-width="0.5" stroke-miterlimit="10" stroke-linecap="round" stroke-linejoin="round"/>
<path d="M81.8747 66.0135C81.0197 66.0145 77.9457 66.0965 77.8717 67.1945C77.7827 68.5195 81.3757 66.3485 81.8747 66.0135ZM81.8747 66.0135C81.3437 66.4085 79.5897 69.3295 80.9037 69.4935C82.0357 69.6345 82.4807 66.4055 81.8747 66.0135Z" stroke="#373814" stroke-width="0.5" stroke-miterlimit="10" stroke-linecap="round" stroke-linejoin="round"/>
<path d="M81.0007 66.0135C81.0007 66.0135 82.4997 66.2295 83.8827 66.0765C84.5407 66.0025 82.6597 66.5015 81.0007 66.0135ZM81.0007 66.0135C81.0007 66.0135 82.7867 66.7805 83.8217 66.5305" stroke="#373814" stroke-width="0.5" stroke-miterlimit="10" stroke-linecap="round" stroke-linejoin="round"/>
<path d="M59.7939 70.3945C55.6989 68.1725 49.1999 67.9555 43.2399 69.8395H43.2359C30.6549 73.8165 25.22 84.6385 28.696 98.7865C30.71 106.999 36.086 113.262 43.832 116.426C48.666 118.398 53.9419 118.884 58.5649 117.83C58.6329 118.553 58.672 119.363 59.12 119.597C59.699 119.983 61.5349 118.948 62.1209 118.649C61.9919 118.023 61.787 117.423 61.472 116.926C69.041 113.861 72.9569 106.156 72.2569 95.5315C71.6499 86.3145 68.0589 74.8685 59.7939 70.3945Z" fill="#FFD939"/>
<path d="M63.686 85.9155C64.253 85.0315 64.355 83.9985 63.967 83.0095C63.303 81.3025 61.961 80.5815 60.38 81.0825C59.628 81.3185 58.979 81.8105 58.717 82.3345C58.19 83.3935 58.648 84.8295 59.25 85.8195C59.986 87.0305 61.283 87.4455 62.344 87.1115C62.969 86.9155 63.288 86.5335 63.686 85.9155Z" fill="#FFEEA9"/>
<path opacity="0.25" d="M42.152 109.556C35.947 102.296 32.35 90.5905 32.778 82.0705C32.79 81.8505 32.812 81.6285 32.835 81.4075C31.878 82.9605 31.254 84.6255 31.06 86.2655C30.154 93.9845 32.901 104.272 38.473 110.471C43.22 115.756 51.658 117.215 56.459 117.035C52.698 115.71 45.828 113.856 42.152 109.556Z" fill="white"/>
<path d="M59.7349 117.202L83.1488 167.258" stroke="#373814" stroke-width="0.5" stroke-miterlimit="10" stroke-linecap="round" stroke-linejoin="round"/>
<path d="M59.735 117.202C58.75 117.256 55.2209 117.539 55.2039 118.805C55.1819 120.334 59.18 117.618 59.735 117.202ZM59.735 117.202C59.148 117.688 57.3089 121.155 58.8309 121.264C60.1399 121.356 60.453 117.618 59.735 117.202Z" stroke="#373814" stroke-width="0.5" stroke-miterlimit="10" stroke-linecap="round" stroke-linejoin="round"/>
<path d="M58.729 117.256C58.729 117.256 60.464 117.412 62.046 117.152C62.797 117.026 60.665 117.716 58.729 117.256ZM58.729 117.256C58.729 117.256 60.831 118.027 62.003 117.679" stroke="#373814" stroke-width="0.5" stroke-miterlimit="10" stroke-linecap="round" stroke-linejoin="round"/>
<path d="M51.6159 29.5005C47.5209 27.2775 41.0219 27.0615 35.0609 28.9455H35.0569C22.4769 32.9225 17.0409 43.7445 20.5179 57.8925C22.5319 66.1045 27.9079 72.3675 35.6529 75.5305C40.4879 77.5035 45.7639 77.9895 50.3869 76.9355C50.4549 77.6585 50.4939 78.4685 50.9419 78.7015C51.5209 79.0885 53.3569 78.0525 53.9429 77.7545C53.8129 77.1285 53.6089 76.5285 53.2939 76.0315C60.8629 72.9665 64.7789 65.2605 64.0789 54.6375C63.4709 45.4205 59.8799 33.9745 51.6159 29.5005Z" fill="#FF7A45"/>
<path d="M55.506 45.0215C56.074 44.1375 56.1759 43.1045 55.7879 42.1155C55.1229 40.4075 53.7809 39.6875 52.2009 40.1875C52.2009 40.1875 52.2009 40.1875 52.1989 40.1885C51.4489 40.4245 50.7999 40.9165 50.5369 41.4405C50.0119 42.4995 50.4689 43.9355 51.0719 44.9255C51.8069 46.1365 53.1039 46.5515 54.1649 46.2175C54.7909 46.0215 55.11 45.6395 55.506 45.0215Z" fill="#FFD0C0"/>
<path opacity="0.25" d="M33.9728 68.6615C27.7678 61.4005 24.1718 49.6955 24.5988 41.1765C24.6118 40.9555 24.6328 40.7345 24.6558 40.5135C23.6988 42.0655 23.0748 43.7315 22.8808 45.3715C21.9758 53.0905 24.7218 63.3775 30.2938 69.5765C35.0398 74.8615 43.4798 76.3205 48.2798 76.1415C44.5188 74.8165 37.6488 72.9625 33.9728 68.6615Z" fill="white"/>
<path d="M51.5559 76.3085L83.1489 167.258" stroke="#373814" stroke-width="0.5" stroke-miterlimit="10" stroke-linecap="round" stroke-linejoin="round"/>
<path d="M51.556 76.3085C50.571 76.3625 47.042 76.6455 47.024 77.9115C47.003 79.4405 51.002 76.7235 51.556 76.3085ZM51.556 76.3085C50.969 76.7945 49.129 80.2615 50.651 80.3695C51.961 80.4625 52.274 76.7235 51.556 76.3085Z" stroke="#373814" stroke-width="0.5" stroke-miterlimit="10" stroke-linecap="round" stroke-linejoin="round"/>
<path d="M50.55 76.3615C50.55 76.3615 52.2851 76.5175 53.8671 76.2565C54.6181 76.1325 52.487 76.8215 50.55 76.3615ZM50.55 76.3615C50.55 76.3615 52.6511 77.1325 53.8241 76.7845" stroke="#373814" stroke-width="0.5" stroke-miterlimit="10" stroke-linecap="round" stroke-linejoin="round"/>
<path d="M139.289 76.0225C136.768 72.1055 131.172 68.7925 125.04 67.5805C125.037 67.5795 125.037 67.5795 125.035 67.5785C112.092 65.0195 102.125 71.8985 98.3728 85.9765C96.1928 94.1445 97.8978 102.221 103.171 108.717C106.462 112.77 110.856 115.733 115.416 117.031C115.13 117.698 114.773 118.426 115.054 118.847C115.375 119.463 117.484 119.437 118.142 119.456C118.328 118.846 118.438 118.222 118.399 117.635C126.511 118.583 133.648 113.709 138.139 104.057C142.036 95.6805 144.388 83.9175 139.289 76.0225Z" fill="#6262B5"/>
<path d="M135.242 91.5035C136.166 91.0005 136.751 90.1435 136.887 89.0905C137.124 87.2735 136.295 85.9975 134.668 85.6765C134.668 85.6765 134.668 85.6765 134.666 85.6765C133.895 85.5225 133.088 85.6415 132.606 85.9755C131.637 86.6505 131.347 88.1305 131.401 89.2885C131.464 90.7045 132.402 91.6905 133.493 91.9075C134.136 92.0355 134.598 91.8545 135.242 91.5035Z" fill="#ACACE2"/>
<path opacity="0.25" d="M104.999 101.886C103.046 92.5365 105.518 80.5435 109.986 73.2775C110.102 73.0895 110.228 72.9065 110.355 72.7235C108.769 73.6235 107.421 74.7845 106.463 76.1305C101.958 82.4635 99.4229 92.8055 101.33 100.92C102.953 107.836 109.652 113.171 113.949 115.32C111.289 112.351 106.156 107.425 104.999 101.886Z" fill="white"/>
<path d="M116.987 117.202L83.1489 167.258" stroke="#373814" stroke-width="0.5" stroke-miterlimit="10" stroke-linecap="round" stroke-linejoin="round"/>
<path d="M116.987 117.202C116.001 117.256 112.473 117.539 112.455 118.805C112.434 120.334 116.432 117.618 116.987 117.202ZM116.987 117.202C116.399 117.688 114.56 121.155 116.082 121.264C117.391 121.356 117.704 117.618 116.987 117.202Z" stroke="#373814" stroke-width="0.5" stroke-miterlimit="10" stroke-linecap="round" stroke-linejoin="round"/>
<path d="M115.98 117.256C115.98 117.256 117.715 117.412 119.297 117.152C120.048 117.026 117.916 117.716 115.98 117.256ZM115.98 117.256C115.98 117.256 118.082 118.027 119.254 117.679" stroke="#373814" stroke-width="0.5" stroke-miterlimit="10" stroke-linecap="round" stroke-linejoin="round"/>
<path d="M139.809 28.5865C137.098 24.8005 131.347 21.7655 125.162 20.8555C125.159 20.8565 125.159 20.8565 125.157 20.8555C112.103 18.9355 102.488 26.2975 99.4339 40.5445C97.6589 48.8105 99.7589 56.7925 105.344 63.0205C108.832 66.9075 113.365 69.6495 117.984 70.7205C117.731 71.4015 117.411 72.1475 117.713 72.5535C118.065 73.1535 120.167 73.0235 120.826 73.0105C120.982 72.3915 121.06 71.7625 120.994 71.1795C129.142 71.7255 136.031 66.5055 140.04 56.6445C143.522 48.0875 145.291 36.2235 139.809 28.5865Z" fill="#FFD939"/>
<path d="M139.286 40.1505C140.183 39.6015 140.726 38.7165 140.809 37.6595C140.956 35.8315 140.065 34.5985 138.424 34.3575H138.422C137.644 34.2415 136.844 34.4015 136.38 34.7565C135.445 35.4805 135.228 36.9715 135.337 38.1265C135.471 39.5365 136.457 40.4765 137.557 40.6395C138.207 40.7355 138.659 40.5315 139.286 40.1505Z" fill="#FFEEA9"/>
<path opacity="0.25" d="M106.834 56.1095C104.424 46.8675 106.301 34.7665 110.406 27.2905C110.513 27.0965 110.631 26.9065 110.748 26.7185C109.208 27.6965 107.92 28.9225 107.029 30.3145C102.841 36.8615 100.817 47.3145 103.123 55.3255C105.084 62.1535 112.039 67.1515 116.436 69.0885C113.631 66.2495 108.262 61.5825 106.834 56.1095Z" fill="white"/>
<path d="M118.658 70.4995L83.1489 167.362" stroke="#373814" stroke-width="0.5" stroke-miterlimit="10" stroke-linecap="round" stroke-linejoin="round"/>
<path d="M118.658 70.4995C117.702 70.7415 114.294 71.6995 114.52 72.9455C114.794 74.4505 118.194 71.0145 118.658 70.4995ZM118.658 70.4995C118.176 71.0895 117.039 74.8465 118.554 74.6585C119.857 74.4975 119.442 70.7685 118.658 70.4995Z" stroke="#373814" stroke-width="0.5" stroke-miterlimit="10" stroke-linecap="round" stroke-linejoin="round"/>
<path d="M117.681 70.7465C117.681 70.7465 119.374 71.1575 120.977 71.1335C121.739 71.1215 119.528 71.4875 117.681 70.7465ZM117.681 70.7465C117.681 70.7465 119.644 71.8195 120.857 71.6485" stroke="#373814" stroke-width="0.5" stroke-miterlimit="10" stroke-linecap="round" stroke-linejoin="round"/>
<path d="M69.9398 48.6375C67.0408 45.4515 61.5468 43.3955 55.9438 43.3945H55.9418C44.1208 43.3945 36.5528 51.6395 35.6998 65.4515C35.2038 73.4645 38.1048 80.6765 43.8688 85.7585C47.1788 88.6755 51.1498 90.5625 55.0628 91.1325C54.7818 91.9365 54.5728 92.6955 55.0468 93.2395C55.8168 94.0085 58.6388 93.3675 59.5348 93.1105C59.3328 92.5035 59.2348 91.8605 59.0778 91.2385C66.2348 90.5075 71.5548 84.6725 73.7968 74.9735C75.7688 66.4505 75.7898 55.0555 69.9398 48.6375Z" fill="#FF5F7E"/>
<path opacity="0.25" d="M45.1889 77.4205C42.6289 69.5305 41.0299 58.7145 44.2099 52.0225C44.2929 51.8485 44.3839 51.6775 44.4769 51.5085C43.1919 52.4365 42.1339 53.5635 41.4349 54.8135C38.1369 60.7055 39.5289 70.1006 41.9319 76.9256C43.9809 82.7486 47.6489 86.5026 51.5599 87.9556C48.9849 85.6396 46.7049 82.0945 45.1889 77.4205Z" fill="white"/>
<path d="M68.6877 57.7255C69.3717 57.1565 69.7157 56.3475 69.6577 55.4505C69.5567 53.9025 68.6577 52.9785 67.2537 52.9785H67.2527C66.5877 52.9785 65.9347 53.2085 65.5907 53.5665C64.8957 54.2855 64.8987 55.5625 65.1317 56.5165C65.4167 57.6815 66.3577 58.3485 67.3017 58.3485C67.8547 58.3485 68.2097 58.1205 68.6877 57.7255Z" fill="#FFE1E8"/>
<path d="M117.765 52.2915C115.114 49.3805 110.089 47.4995 104.967 47.4985H104.965C94.1549 47.4985 87.2379 55.0375 86.4569 67.6655C86.0019 74.9925 88.6539 81.5865 93.9249 86.2325C97.4889 89.3745 100.802 91.2075 104.907 91.3075C104.718 91.7405 104.485 92.1785 104.485 92.6605C105.127 92.7895 105.767 92.7255 106.408 92.7255C106.408 92.2515 106.332 91.7565 106.232 91.2805C113.099 90.8155 119.193 85.4435 121.291 76.3725C123.094 68.5795 123.115 58.1615 117.765 52.2915Z" fill="#FF7A45"/>
<path d="M116.256 64.5366C117.439 64.5366 118.511 63.6496 118.868 62.1016C119.162 60.8316 119.165 59.1336 118.293 58.1776C117.861 57.7026 117.043 57.3965 116.209 57.3965H116.207C114.446 57.3965 113.318 58.6256 113.191 60.6826C113.117 61.8766 113.55 62.9506 114.408 63.7076C115.007 64.2346 115.561 64.5366 116.256 64.5366Z" fill="#FFD0C0"/>
<path d="M105.988 91.4465C106.821 91.6455 109.792 92.4315 109.61 93.5175C109.391 94.8295 106.396 91.8865 105.988 91.4465ZM105.988 91.4465C106.413 91.9535 107.448 95.2005 106.131 95.0555C104.996 94.9325 105.308 91.6905 105.988 91.4465Z" stroke="#373814" stroke-width="0.5" stroke-miterlimit="10" stroke-linecap="round" stroke-linejoin="round"/>
<path d="M104.585 91.3635C104.585 91.3635 105.928 91.5525 107.161 91.3755C107.746 91.2895 106.078 91.8225 104.585 91.3635ZM104.585 91.3635C104.585 91.3635 106.196 92.0986 107.116 91.8306" stroke="#373814" stroke-width="0.5" stroke-miterlimit="10" stroke-linecap="round" stroke-linejoin="round"/>
<path d="M105.844 91.6265L83.1489 167.362" stroke="#373814" stroke-width="0.5" stroke-miterlimit="10" stroke-linecap="round" stroke-linejoin="round"/>
<path opacity="0.25" d="M91.9219 65.8526C92.7869 73.7326 96.0209 83.5805 102.507 87.5865C102.676 87.6915 102.852 87.7875 103.029 87.8835C101.224 87.7485 99.5709 87.3355 98.2449 86.6395C92.0009 83.3615 89.1919 74.8055 88.6489 67.8935C88.1819 61.9985 90.4039 57.0245 93.9399 53.8525C92.2329 57.0795 91.4089 61.1846 91.9219 65.8526Z" fill="white"/>
<path d="M90.9327 67.7845C87.4827 64.1505 82.9587 62.0665 78.5237 62.0665C75.5687 62.0665 65.7077 63.2205 62.8347 78.0605C61.1217 86.9055 62.3487 94.8735 66.1987 99.9195C68.8657 103.417 73.3397 105.691 78.0857 106.031C77.8157 106.741 77.6017 107.502 77.8677 107.874C78.2447 108.439 79.8477 108.346 80.4127 108.157C81.4547 107.702 81.4167 106.841 81.1077 105.979C88.4107 105.201 96.3997 99.5655 97.1217 85.6075C97.4807 78.6955 95.2827 72.3645 90.9327 67.7845Z" fill="#A662B7"/>
<path opacity="0.25" d="M68.7967 91.7355C67.3517 83.9815 67.3357 73.6145 71.6247 67.7725C71.7357 67.6215 71.8547 67.4745 71.9767 67.3285C70.5137 68.0215 69.2527 68.9335 68.3427 70.0115C64.0537 75.0845 64.0697 84.0905 65.5147 90.8265C66.7467 96.5705 69.9587 100.597 73.7697 102.499C71.4647 99.9695 69.6527 96.3305 68.7967 91.7355Z" fill="white"/>
<path d="M90.5416 77.0355C91.1746 76.1555 91.3946 75.0015 91.1616 73.7855C90.7616 71.6885 89.6156 70.5605 88.0996 70.7695C87.3806 70.8695 86.7196 71.2815 86.4146 71.8195C85.7986 72.9035 86.0406 74.6455 86.4746 75.9155C87.0016 77.4605 88.1426 78.2315 89.1606 78.0915C89.7596 78.0085 90.1016 77.6465 90.5416 77.0355Z" fill="#DFB8E8"/>
<path d="M117.26 76.9385C114.844 73.7415 109.926 71.3675 104.734 70.8915C104.734 70.8915 104.733 70.8915 104.731 70.8905C93.7749 69.8855 86.0599 76.8835 84.0939 89.6125C82.9529 96.9985 85.0299 103.927 89.9399 109.129C92.7599 112.114 96.2799 114.201 99.8589 115.061C99.5279 115.783 99.2709 116.469 99.6649 117.014C100.313 117.793 102.983 117.438 103.837 117.277C103.701 116.696 103.663 116.092 103.571 115.503C110.266 115.434 116.795 110.221 119.7 101.422C122.249 93.6875 122.137 83.3865 117.26 76.9385Z" fill="#DDE852"/>
<path d="M114.702 84.1935C115.639 83.5505 116.17 82.5645 116.199 81.4175C116.25 79.4405 115.217 78.1625 113.433 77.9985C112.586 77.9215 111.732 78.1375 111.253 78.5515C110.285 79.3835 110.14 81.0055 110.326 82.2445C110.553 83.7575 111.67 84.7145 112.867 84.8235C113.572 84.8895 114.051 84.6415 114.702 84.1935Z" fill="#FDFFBB"/>
<path opacity="0.25" d="M90.6229 98.8655C89.7189 91.2695 90.6149 81.3075 95.8389 76.1285C95.9749 75.9945 96.1189 75.8635 96.2649 75.7365C94.5979 76.2545 93.133 77.0045 92.039 77.9475C86.883 82.3885 86.107 91.0445 87.099 97.6605C87.946 103.305 91.118 107.495 95.133 109.707C92.827 107.045 91.1589 103.367 90.6229 98.8655Z" fill="white"/>
<path d="M101.286 115.425C102.226 115.514 105.593 115.912 105.562 117.125C105.528 118.589 101.802 115.843 101.286 115.425ZM101.286 115.425C101.83 115.913 103.464 119.298 102.002 119.345C100.746 119.385 100.584 115.797 101.286 115.425Z" stroke="#373814" stroke-width="0.5" stroke-miterlimit="10" stroke-linecap="round" stroke-linejoin="round"/>
<path d="M99.7849 115.117C99.7849 115.117 101.751 115.555 103.604 115.574C104.485 115.583 101.933 115.877 99.7849 115.117ZM99.7849 115.117C99.7849 115.117 102.072 116.199 103.473 116.064" stroke="#373814" stroke-width="0.5" stroke-miterlimit="10" stroke-linecap="round" stroke-linejoin="round"/>
<path d="M100.873 115.425L83.1489 167.362" stroke="#373814" stroke-width="0.5" stroke-miterlimit="10" stroke-linecap="round" stroke-linejoin="round"/>
<path d="M79.7409 106.147C80.5739 105.958 83.5869 105.348 83.9049 106.402C84.2879 107.674 80.2999 106.361 79.7409 106.147ZM79.7409 106.147C80.3449 106.414 82.7099 108.868 81.4649 109.322C80.3929 109.712 79.2369 106.665 79.7409 106.147Z" stroke="#373814" stroke-width="0.5" stroke-miterlimit="10" stroke-linecap="round" stroke-linejoin="round"/>
<path d="M77.8638 106.092C77.8638 106.092 79.6878 106.181 81.3468 105.91C82.1348 105.781 79.9018 106.439 77.8638 106.092ZM77.8638 106.092C77.8638 106.092 80.0728 106.706 81.3048 106.368" stroke="#373814" stroke-width="0.5" stroke-miterlimit="10" stroke-linecap="round" stroke-linejoin="round"/>
<path d="M79.6877 106.785L83.1487 167.362" stroke="#373814" stroke-width="0.5" stroke-miterlimit="10" stroke-linecap="round" stroke-linejoin="round"/>
<path d="M56.6937 91.3115C57.4687 91.6745 60.2197 93.0465 59.8227 94.0735C59.3437 95.3135 57.0037 91.8245 56.6937 91.3115ZM56.6937 91.3115C57.0077 91.8935 57.3647 95.2835 56.1027 94.8755C55.0177 94.5245 55.9787 91.4115 56.6937 91.3115Z" stroke="#373814" stroke-width="0.5" stroke-miterlimit="10" stroke-linecap="round" stroke-linejoin="round"/>
<path d="M54.8188 91.2575C54.8188 91.2575 57.1508 91.4775 59.3028 91.3285C60.3248 91.2575 57.4008 91.7505 54.8188 91.2575ZM54.8188 91.2575C54.8188 91.2575 57.5968 92.0305 59.2088 91.7825" stroke="#373814" stroke-width="0.5" stroke-miterlimit="10" stroke-linecap="round" stroke-linejoin="round"/>
<path d="M56.6409 91.9495L83.1489 167.362" stroke="#373814" stroke-width="0.5" stroke-miterlimit="10" stroke-linecap="round" stroke-linejoin="round"/>
<path d="M80.8089 230.752C79.1739 215.212 80.264 198.583 82.036 187.541C83.809 176.5 83.148 167.362 83.148 167.362" stroke="#373814" stroke-width="0.5" stroke-miterlimit="10" stroke-linecap="round" stroke-linejoin="round"/>
<path d="M85.6077 220.938C87.2447 207.805 86.1537 193.749 84.3807 184.417C82.6087 175.085 83.2687 167.362 83.2687 167.362" stroke="#373814" stroke-width="0.5" stroke-miterlimit="10" stroke-linecap="round" stroke-linejoin="round"/>
<path d="M84.1819 230.752C84.8439 215.212 86.0369 198.583 85.3199 187.541C84.4439 174.063 83.0339 174.198 83.2329 167.362" stroke="#373814" stroke-width="0.5" stroke-miterlimit="10" stroke-linecap="round" stroke-linejoin="round"/>
<path d="M83.2328 167.362C83.2328 167.362 81.9809 175.816 82.1879 183.666C82.7799 206.105 81.6879 210.559 80.5789 218.137" stroke="#373814" stroke-width="0.5" stroke-miterlimit="10" stroke-linecap="round" stroke-linejoin="round"/>
<path d="M82.2368 220.938C81.5738 207.805 82.0158 193.749 82.7338 184.417C83.4518 175.085 83.1848 167.362 83.1848 167.362" stroke="#373814" stroke-width="0.5" stroke-miterlimit="10" stroke-linecap="round" stroke-linejoin="round"/>
<path d="M85.6077 243.252C87.2427 224.648 86.1527 204.739 84.3797 191.521C82.6077 178.302 83.2677 167.363 83.2677 167.363" stroke="#373814" stroke-width="0.5" stroke-miterlimit="10" stroke-linecap="round" stroke-linejoin="round"/>
<path d="M80.8088 231.502C79.1718 215.779 80.2629 198.952 82.0359 187.78C83.8079 176.607 83.1479 167.362 83.1479 167.362" stroke="#373814" stroke-width="0.5" stroke-miterlimit="10" stroke-linecap="round" stroke-linejoin="round"/>
<path d="M82.2349 243.252C81.5729 224.648 80.3799 204.739 81.0969 191.521C81.9729 175.385 83.3829 175.546 83.1839 167.363" stroke="#373814" stroke-width="0.5" stroke-miterlimit="10" stroke-linecap="round" stroke-linejoin="round"/>
<path d="M83.1838 167.362C83.1838 167.362 84.4358 177.483 84.2288 186.88C83.6368 213.743 84.7288 219.075 85.8378 228.149" stroke="#373814" stroke-width="0.5" stroke-miterlimit="10" stroke-linecap="round" stroke-linejoin="round"/>
<path d="M84.1799 231.502C84.8429 215.779 84.4009 198.952 83.6829 187.78C82.9649 176.607 83.2319 167.362 83.2319 167.362" stroke="#373814" stroke-width="0.5" stroke-miterlimit="10" stroke-linecap="round" stroke-linejoin="round"/>
</svg>
