<svg width="85" height="330" viewBox="0 0 85 330" fill="none" xmlns="http://www.w3.org/2000/svg">
<path d="M40.9014 93.0732C37.4634 89.5122 30.9544 87.2132 24.3134 87.2122H24.3094C10.2994 87.2122 1.33238 96.4292 0.321384 111.87C-0.268616 120.829 3.17138 128.891 10.0014 134.572C14.2674 138.117 19.4524 140.3 24.4724 140.712C24.3104 141.466 24.0894 142.298 24.4684 142.679C24.9314 143.256 27.1204 142.794 27.8124 142.679C27.8784 142.005 27.8634 141.332 27.7034 140.727C36.3504 140.045 42.7814 133.498 45.4754 122.518C47.8084 112.989 47.8354 100.249 40.9014 93.0732Z" fill="#75D3CC"/>
<path d="M39.7414 104.843C40.9484 103.839 41.5574 102.413 41.4544 100.83C41.2744 98.1012 39.6884 96.4722 37.2124 96.4722H37.2103C36.0363 96.4722 34.8883 96.8792 34.2783 97.5082C33.0533 98.7772 33.0574 101.029 33.4714 102.713C33.9734 104.766 35.6333 105.943 37.2933 105.943C38.2743 105.943 38.9014 105.542 39.7414 104.843Z" fill="#B5F7F0"/>
<path opacity="0.25" d="M10.4993 127.079C6.54034 117.742 6.64534 104.739 9.80634 96.2492C9.88834 96.0282 9.98234 95.8112 10.0773 95.5952C8.61034 96.8612 7.44234 98.3462 6.72334 99.9452C3.33434 107.473 2.82334 118.768 6.47934 126.826C9.59634 133.699 17.6723 137.88 22.5923 139.233C19.2083 136.685 12.8453 132.611 10.4993 127.079Z" fill="white"/>
<path d="M26.0444 140.659L34.6014 251.576" stroke="#373814" stroke-width="0.5" stroke-miterlimit="10" stroke-linecap="round" stroke-linejoin="round"/>
<path d="M26.0445 140.659C24.9975 140.661 21.2395 140.76 21.1495 142.103C21.0405 143.724 25.4335 141.068 26.0445 140.659ZM26.0445 140.659C25.3945 141.142 23.2495 144.715 24.8565 144.914C26.2395 145.087 26.7825 141.14 26.0445 140.659Z" stroke="#373814" stroke-width="0.5" stroke-miterlimit="10" stroke-linecap="round" stroke-linejoin="round"/>
<path d="M24.9744 140.659C24.9744 140.659 26.8084 140.922 28.4994 140.735C29.3024 140.646 27.0034 141.256 24.9744 140.659ZM24.9744 140.659C24.9744 140.659 27.1604 141.597 28.4254 141.291" stroke="#373814" stroke-width="0.5" stroke-miterlimit="10" stroke-linecap="round" stroke-linejoin="round"/>
<path d="M71.8022 110.393C68.9002 106.55 62.9952 103.694 56.7612 103.117L56.7572 103.116C43.5972 101.899 34.3252 110.299 31.9542 125.586C30.5752 134.455 33.0612 142.781 38.9542 149.032C42.9402 153.258 46.7672 155.863 51.7532 156.447C51.4782 156.954 51.1422 157.461 51.0892 158.048C51.8572 158.277 52.6422 158.271 53.4232 158.343C53.4762 157.766 53.4392 157.156 53.3702 156.564C61.7842 156.772 69.8082 150.918 73.3842 140.11C76.4542 130.825 77.6532 118.142 71.8022 110.393Z" fill="#FF7A45"/>
<path d="M68.5851 125.132C70.0241 125.265 71.4311 124.305 72.0401 122.461C72.5421 120.949 72.7351 118.881 71.7821 117.619C71.3091 116.992 70.3481 116.527 69.3311 116.433H69.3291C67.1861 116.235 65.6751 117.603 65.2881 120.094C65.0631 121.54 65.4701 122.897 66.4291 123.915C67.0991 124.624 67.7371 125.054 68.5851 125.132Z" fill="#FFD0C0"/>
<path opacity="0.25" d="M38.8123 123.993C38.9763 133.684 41.8043 146.038 49.2513 151.646C49.4443 151.792 49.6493 151.931 49.8533 152.066C47.6713 151.7 45.7033 151.01 44.1673 150.013C36.9353 145.318 34.4783 134.585 34.5953 126.109C34.6933 118.88 37.9563 113.074 42.6183 109.61C40.1773 113.348 38.7123 118.252 38.8123 123.993Z" fill="white"/>
<path d="M52.2001 156.258C53.2371 156.388 56.9541 156.947 56.8801 158.29C56.7881 159.913 52.7551 156.738 52.2001 156.258ZM52.2001 156.258C52.7841 156.817 54.4751 160.625 52.8561 160.626C51.4601 160.628 51.4051 156.644 52.2001 156.258Z" stroke="#373814" stroke-width="0.5" stroke-miterlimit="10" stroke-linecap="round" stroke-linejoin="round"/>
<path d="M50.4851 156.345C50.4851 156.345 52.1411 156.395 53.6161 156.013C54.3151 155.832 52.3601 156.702 50.4851 156.345ZM50.4851 156.345C50.4851 156.345 52.5401 157.023 53.6241 156.573" stroke="#373814" stroke-width="0.5" stroke-miterlimit="10" stroke-linecap="round" stroke-linejoin="round"/>
<path d="M52.0501 156.497L34.6011 251.576" stroke="#373814" stroke-width="0.5" stroke-miterlimit="10" stroke-linecap="round" stroke-linejoin="round"/>
<path d="M64.8022 7.39321C61.9002 3.55021 55.9952 0.694206 49.7612 0.117206L49.7572 0.116207C36.5972 -1.10079 27.3252 7.29921 24.9542 22.5862C23.5752 31.4552 26.0612 39.7812 31.9542 46.0322C35.9402 50.2582 39.7672 52.8632 44.7532 53.4472C44.4782 53.9542 44.1422 54.4612 44.0892 55.0482C44.8572 55.2762 45.6422 55.2712 46.4232 55.3432C46.4762 54.7662 46.4392 54.1562 46.3702 53.5642C54.7842 53.7722 62.8082 47.9182 66.3842 37.1102C69.4542 27.8252 70.6532 15.1422 64.8022 7.39321Z" fill="#6262B5"/>
<path d="M61.5851 22.1322C63.0241 22.2652 64.4311 21.3052 65.0401 19.4612C65.5421 17.9492 65.7351 15.8812 64.7821 14.6192C64.3091 13.9932 63.3481 13.5272 62.3311 13.4332H62.3291C60.1861 13.2352 58.6751 14.6032 58.2881 17.0942C58.0631 18.5402 58.4701 19.8972 59.4291 20.9152C60.0991 21.6242 60.7371 22.0542 61.5851 22.1322Z" fill="#ACACE2"/>
<path opacity="0.25" d="M31.8123 20.9932C31.9763 30.6832 34.8043 43.0382 42.2513 48.6462C42.4443 48.7922 42.6493 48.9312 42.8533 49.0662C40.6713 48.7002 38.7033 48.0102 37.1673 47.0132C29.9353 42.3182 27.4783 31.5852 27.5953 23.1092C27.6933 15.8802 30.9563 10.0742 35.6183 6.6102C33.1773 10.3482 31.7123 15.2522 31.8123 20.9932Z" fill="white"/>
<path d="M45.2001 53.2582C46.2371 53.3882 49.9541 53.9472 49.8801 55.2902C49.7881 56.9132 45.7551 53.7382 45.2001 53.2582ZM45.2001 53.2582C45.7841 53.8172 47.4751 57.6252 45.8561 57.6262C44.4601 57.6282 44.4051 53.6442 45.2001 53.2582Z" stroke="#373814" stroke-width="0.5" stroke-miterlimit="10" stroke-linecap="round" stroke-linejoin="round"/>
<path d="M43.4851 53.3452C43.4851 53.3452 45.1411 53.3952 46.6161 53.0132C47.3151 52.8322 45.3601 53.7022 43.4851 53.3452ZM43.4851 53.3452C43.4851 53.3452 45.5401 54.0232 46.6241 53.5732" stroke="#373814" stroke-width="0.5" stroke-miterlimit="10" stroke-linecap="round" stroke-linejoin="round"/>
<path d="M45.0501 53.4972L34.6011 251.576" stroke="#373814" stroke-width="0.5" stroke-miterlimit="10" stroke-linecap="round" stroke-linejoin="round"/>
<path d="M36.6082 142.453C31.3522 139.305 25.3402 138.334 20.1162 139.788C16.6362 140.757 5.39717 145.351 6.88217 163.773C7.76517 174.752 11.8232 183.734 18.0152 188.416C22.3042 191.662 28.3182 192.872 34.0192 191.715C33.9352 192.643 33.9332 193.608 34.3692 193.959C34.9982 194.502 36.8552 193.865 37.4592 193.457C38.5372 192.578 38.2092 191.578 37.5632 190.665C45.9112 187.351 53.4712 178.094 49.7452 161.417C47.8992 153.158 43.2332 146.422 36.6082 142.453Z" fill="#A662B7"/>
<path opacity="0.25" d="M18.3901 177.925C14.1461 169.267 10.7261 157.059 13.8631 148.773C13.9451 148.558 14.0371 148.345 14.1331 148.133C12.6351 149.43 11.4491 150.918 10.7331 152.485C7.34407 159.867 10.3171 170.469 14.2271 177.929C17.5631 184.291 22.6661 187.979 27.7801 188.969C24.2331 186.747 20.9051 183.055 18.3901 177.925Z" fill="white"/>
<path d="M39.1833 153.476C39.6383 152.233 39.5193 150.802 38.8473 149.446C37.6873 147.107 35.9683 146.155 34.2493 146.899C33.4353 147.252 32.7923 147.954 32.6103 148.688C32.2393 150.168 33.0963 152.14 34.0223 153.492C35.1513 155.14 36.7473 155.674 37.9013 155.175C38.5813 154.88 38.8643 154.341 39.1833 153.476Z" fill="#DFB8E8"/>
<path d="M81.0893 162.85C78.8183 159.03 73.6873 155.813 68.0233 154.653C68.0233 154.653 68.0213 154.653 68.0193 154.652C56.0663 152.206 46.7063 158.976 42.9863 172.767C40.8263 180.767 42.2673 188.66 47.0453 194.992C49.7873 198.627 53.4123 201.357 57.2523 202.742C56.8013 203.498 56.4343 204.222 56.8013 204.871C57.4183 205.809 60.4053 205.744 61.3653 205.67C61.2873 205.014 61.3203 204.344 61.2893 203.682C68.6783 204.424 76.5123 199.475 80.7873 190.131C84.5423 181.919 85.6773 170.552 81.0893 162.85Z" fill="#FF5F7E"/>
<path d="M77.3823 170.534C78.4933 169.94 79.2003 168.917 79.3743 167.657C79.6713 165.483 78.6883 163.949 76.7413 163.55C75.8193 163.361 74.8483 163.495 74.2703 163.892C73.1043 164.693 72.7453 166.462 72.7973 167.852C72.8633 169.545 73.9773 170.737 75.2833 171.004C76.0543 171.163 76.6103 170.948 77.3823 170.534Z" fill="#FFE1E8"/>
<path opacity="0.25" d="M49.0503 183.764C48.9823 175.282 51.1873 164.409 57.5793 159.339C57.7433 159.208 57.9193 159.082 58.0973 158.959C56.1953 159.327 54.4883 159.974 53.1673 160.88C46.9403 165.147 45.0283 174.59 45.3133 182.005C45.5573 188.327 48.5423 193.335 52.6983 196.265C50.4813 193.048 49.0913 188.79 49.0503 183.764Z" fill="white"/>
<path d="M58.2394 202.983C59.2864 202.985 63.0444 203.085 63.1344 204.427C63.2434 206.049 58.8494 203.392 58.2394 202.983ZM58.2394 202.983C58.8884 203.467 61.0344 207.04 59.4274 207.239C58.0424 207.411 57.5014 203.465 58.2394 202.983Z" stroke="#373814" stroke-width="0.5" stroke-miterlimit="10" stroke-linecap="round" stroke-linejoin="round"/>
<path d="M57.1653 202.794C57.1653 202.794 59.2763 203.519 61.3173 203.765C62.2863 203.882 59.4383 203.893 57.1653 202.794ZM57.1653 202.794C57.1653 202.794 59.5523 204.267 61.1123 204.29" stroke="#373814" stroke-width="0.5" stroke-miterlimit="10" stroke-linecap="round" stroke-linejoin="round"/>
<path d="M58.2393 202.983L34.6013 251.576" stroke="#373814" stroke-width="0.5" stroke-miterlimit="10" stroke-linecap="round" stroke-linejoin="round"/>
<path d="M37.3293 41.7992C33.5013 38.5302 26.8273 36.9502 20.3373 37.7692C20.3353 37.7692 20.3353 37.7692 20.3333 37.7692C6.62827 39.4982 -0.937731 50.1632 0.0932693 66.3002C0.689269 75.6642 5.10927 83.5982 12.5363 88.6462C16.8003 91.5452 21.6793 93.1502 26.2983 93.2382C26.0893 94.2132 25.9603 95.1232 26.5913 95.6852C27.5933 96.4672 30.7713 95.3082 31.7733 94.8782C31.4533 94.2052 31.2423 93.4752 30.9703 92.7752C39.1613 90.8792 45.7533 82.7242 46.9373 71.1512C47.9723 60.9832 45.0503 48.3842 37.3293 41.7992Z" fill="#FF5F7E"/>
<path d="M36.1533 51.3852C37.1263 50.3432 37.5103 48.9892 37.2413 47.5762C36.7683 45.1362 35.1533 43.8502 32.9253 44.1312C31.8643 44.2642 30.8763 44.7622 30.3983 45.3982C29.4393 46.6812 29.7013 48.7092 30.2593 50.1792C30.9523 51.9712 32.5753 52.8432 34.0753 52.6532C34.9583 52.5412 35.4743 52.1112 36.1533 51.3852Z" fill="#FFE1E8"/>
<path opacity="0.25" d="M10.5991 75.8822C7.43715 66.8152 5.84315 54.3572 10.8471 46.5952C10.9781 46.3952 11.1201 46.1962 11.2651 45.9992C9.35915 47.0882 7.76515 48.4022 6.67915 49.8542C1.56015 56.6942 2.94715 67.5142 5.95215 75.3572C8.51615 82.0452 13.5381 86.3272 19.0591 87.9532C15.5111 85.3142 12.4701 81.2552 10.5991 75.8822Z" fill="white"/>
<path d="M27.6184 93.9662C28.5934 93.5852 32.1264 92.3032 32.7024 93.5202C33.3954 94.9892 28.3354 94.1232 27.6184 93.9662ZM27.6184 93.9662C28.3994 94.1782 31.7024 96.7182 30.2784 97.4922C29.0544 98.1592 27.1064 94.6832 27.6184 93.9662Z" stroke="#373814" stroke-width="0.5" stroke-miterlimit="10" stroke-linecap="round" stroke-linejoin="round"/>
<path d="M26.2432 93.6842C26.2432 93.6842 28.8582 93.5782 31.2122 93.0522C32.3312 92.8032 29.1832 93.8682 26.2432 93.6842ZM26.2432 93.6842C26.2432 93.6842 29.4502 94.1742 31.1862 93.6172" stroke="#373814" stroke-width="0.5" stroke-miterlimit="10" stroke-linecap="round" stroke-linejoin="round"/>
<path d="M28.3823 93.6322L34.6013 251.576" stroke="#373814" stroke-width="0.5" stroke-miterlimit="10" stroke-linecap="round" stroke-linejoin="round"/>
<path d="M36.0074 191.309C36.9274 190.811 40.2754 189.106 40.9954 190.243C41.8644 191.616 36.7354 191.378 36.0074 191.309ZM36.0074 191.309C36.8064 191.424 40.3984 193.539 39.0794 194.482C37.9444 195.294 35.5834 192.085 36.0074 191.309Z" stroke="#373814" stroke-width="0.5" stroke-miterlimit="10" stroke-linecap="round" stroke-linejoin="round"/>
<path d="M33.7803 191.86C33.7803 191.86 35.9563 191.365 37.8233 190.503C38.7063 190.093 36.2923 191.601 33.7803 191.86ZM33.7803 191.86C33.7803 191.86 36.5833 191.858 37.9233 191.055" stroke="#373814" stroke-width="0.5" stroke-miterlimit="10" stroke-linecap="round" stroke-linejoin="round"/>
<path d="M36.1533 192.079L34.6013 251.576" stroke="#373814" stroke-width="0.5" stroke-miterlimit="10" stroke-linecap="round" stroke-linejoin="round"/>
<path d="M31.7393 329.082C29.7393 310.082 31.0733 289.749 33.2393 276.249C35.4073 262.749 34.6003 251.576 34.6003 251.576" stroke="#373814" stroke-width="0.5" stroke-miterlimit="10" stroke-linecap="round" stroke-linejoin="round"/>
<path d="M37.6062 317.082C39.6062 301.023 38.2742 283.839 36.1062 272.43C33.9402 261.02 34.7472 251.576 34.7472 251.576" stroke="#373814" stroke-width="0.5" stroke-miterlimit="10" stroke-linecap="round" stroke-linejoin="round"/>
<path d="M35.8623 329.082C36.6733 310.082 38.1323 289.749 37.2553 276.249C36.1833 259.77 34.4583 259.935 34.7023 251.576" stroke="#373814" stroke-width="0.5" stroke-miterlimit="10" stroke-linecap="round" stroke-linejoin="round"/>
<path d="M34.7023 251.576C34.7023 251.576 33.1733 261.914 33.4253 271.51C34.1483 298.946 32.8143 304.392 31.4583 313.657" stroke="#373814" stroke-width="0.5" stroke-miterlimit="10" stroke-linecap="round" stroke-linejoin="round"/>
<path d="M33.4852 317.082C32.6742 301.023 33.2142 283.839 34.0922 272.43C34.9692 261.02 34.6432 251.576 34.6432 251.576" stroke="#373814" stroke-width="0.5" stroke-miterlimit="10" stroke-linecap="round" stroke-linejoin="round"/>
<path d="M80.9424 59.0442C78.5654 54.3452 72.7604 50.1312 66.1594 48.3042H66.1574C52.2254 44.4502 40.6204 51.7002 35.1144 67.6982C31.9174 76.9802 32.9874 86.4242 38.1224 94.2912C41.0714 98.8092 45.1364 102.326 49.5614 104.273C48.9674 105.128 48.4734 105.955 48.8564 106.751C49.5124 107.909 53.0474 108.072 54.1884 108.062C54.1474 107.281 54.2414 106.492 54.2604 105.707C62.9324 107.178 71.1024 102.035 76.9064 91.3382C82.0074 81.9352 85.7454 68.5152 80.9424 59.0442Z" fill="#DDE852"/>
<path opacity="0.25" d="M42.3954 84.8952C41.9504 74.7632 43.5884 61.4962 49.5184 54.6472C49.6724 54.4692 49.8344 54.2972 50.0004 54.1302C48.1844 54.8032 46.5684 55.7862 45.3384 57.0322C39.5314 62.9002 38.1104 74.4262 38.7174 83.2532C39.2334 90.7812 42.3324 96.4012 46.4674 99.3902C44.1884 95.8182 42.6594 90.8982 42.3954 84.8952Z" fill="white"/>
<path d="M76.5053 69.3452C77.4973 68.8982 78.1673 68.0572 78.3903 66.9802C78.7773 65.1242 78.0173 63.7422 76.3633 63.2842H76.3613C75.5783 63.0672 74.7323 63.1262 74.2133 63.4342C73.1583 64.0562 72.7463 65.5612 72.7093 66.7622C72.6663 68.2272 73.5573 69.3212 74.6703 69.6282C75.3213 69.8072 75.8133 69.6552 76.5053 69.3452Z" fill="#FDFFBB"/>
<path d="M51.2552 104.591C52.2022 105.035 55.5662 106.711 55.0792 107.967C54.4932 109.483 51.6342 105.219 51.2552 104.591ZM51.2552 104.591C51.6382 105.302 52.0732 109.447 50.5322 108.949C49.2042 108.521 50.3802 104.714 51.2552 104.591Z" stroke="#373814" stroke-width="0.5" stroke-miterlimit="10" stroke-linecap="round" stroke-linejoin="round"/>
<path d="M48.9993 104.351C48.9993 104.351 51.7263 105.224 54.3373 105.61C55.5773 105.791 51.9523 105.615 48.9993 104.351ZM48.9993 104.351C48.9993 104.351 52.1163 106 54.1043 106.127" stroke="#373814" stroke-width="0.5" stroke-miterlimit="10" stroke-linecap="round" stroke-linejoin="round"/>
<path d="M51.1903 105.372L34.6013 251.576" stroke="#373814" stroke-width="0.5" stroke-miterlimit="10" stroke-linecap="round" stroke-linejoin="round"/>
</svg>
