<svg width="107" height="230" viewBox="0 0 107 230" fill="none" xmlns="http://www.w3.org/2000/svg">
<path d="M52.0006 50.094C48.5646 46.533 42.0536 44.234 35.4136 44.233H35.4096C21.3996 44.233 12.4326 53.45 11.4206 68.891C10.8316 77.849 14.2706 85.912 21.1016 91.593C25.3666 95.138 30.5526 97.32 35.5726 97.733C35.4106 98.487 35.1886 99.319 35.5686 99.7C36.0306 100.277 38.2196 99.815 38.9116 99.7C38.9786 99.026 38.9636 98.353 38.8036 97.748C47.4496 97.066 53.8816 90.519 56.5736 79.539C58.9076 70.009 58.9356 57.27 52.0006 50.094Z" fill="#75D3CC"/>
<path d="M48.4486 88.839C49.3056 88.125 49.7396 87.111 49.6656 85.985C49.5386 84.044 48.4106 82.886 46.6496 82.886C45.8146 82.886 44.9966 83.175 44.5636 83.622C43.6926 84.524 43.6956 86.126 43.9896 87.323C44.3466 88.782 45.5266 89.62 46.7086 89.62C47.4046 89.621 47.8516 89.337 48.4486 88.839Z" fill="#B5F7F0"/>
<path opacity="0.25" d="M21.5995 84.1C17.6395 74.763 17.7455 61.76 20.9065 53.27C20.9885 53.049 21.0815 52.832 21.1775 52.616C19.7115 53.882 18.5435 55.367 17.8245 56.966C14.4345 64.494 13.9245 75.789 17.5805 83.847C20.6965 90.719 28.7735 94.901 33.6925 96.254C30.3085 93.706 23.9445 89.632 21.5995 84.1Z" fill="white"/>
<path d="M41.9316 6.41C38.3866 2.516 31.6696 0.001 24.8196 0H24.8166C10.3626 0 1.11058 10.081 0.0665762 26.967C-0.539424 36.765 3.00755 45.582 10.0546 51.795C14.1016 55.363 18.9566 57.669 23.7426 58.367C23.3976 59.349 23.1426 60.279 23.7226 60.943C24.6636 61.884 28.1146 61.1 29.2106 60.786C28.9626 60.043 28.8436 59.257 28.6506 58.496C37.4016 57.602 43.9056 50.468 46.6476 38.61C49.0586 28.191 49.0846 14.258 41.9316 6.41Z" fill="#DDE852"/>
<path opacity="0.25" d="M11.6687 41.603C8.53867 31.956 6.58266 18.731 10.4727 10.55C10.5737 10.337 10.6847 10.129 10.7987 9.922C9.22768 11.055 7.93368 12.434 7.07868 13.963C3.04668 21.167 4.74768 32.654 7.68668 41C10.1907 48.118 14.6757 52.708 19.4587 54.486C16.3097 51.652 13.5237 47.319 11.6687 41.603Z" fill="white"/>
<path d="M40.4005 17.522C41.2365 16.826 41.6585 15.838 41.5865 14.74C41.4635 12.848 40.3635 11.719 38.6475 11.719H38.6465C37.8335 11.719 37.0345 12.001 36.6145 12.437C35.7645 13.316 35.7675 14.878 36.0545 16.045C36.4035 17.468 37.5525 18.285 38.7065 18.285C39.3815 18.284 39.8165 18.006 40.4005 17.522Z" fill="#FDFFBB"/>
<path d="M100.406 10.879C97.1637 7.31901 91.0207 5.02001 84.7587 5.01901H84.7557C71.5397 5.01901 63.0807 14.236 62.1267 29.677C61.5707 38.636 64.8147 46.697 71.2577 52.379C75.6147 56.22 79.6657 58.462 84.6857 58.584C84.4567 59.114 84.1697 59.65 84.1697 60.239C84.9547 60.396 85.7377 60.318 86.5217 60.318C86.5217 59.739 86.4287 59.134 86.3067 58.551C94.7027 57.984 102.154 51.415 104.719 40.324C106.922 30.795 106.947 18.056 100.406 10.879Z" fill="#FF7A45"/>
<path d="M98.5616 25.851C100.008 25.851 101.319 24.766 101.756 22.873C102.115 21.321 102.119 19.245 101.053 18.076C100.526 17.495 99.5246 17.121 98.5036 17.121C98.5016 17.121 98.5016 17.121 98.5016 17.121C96.3496 17.121 94.9706 18.623 94.8136 21.139C94.7236 22.599 95.2526 23.912 96.3016 24.838C97.0336 25.482 97.7106 25.851 98.5616 25.851Z" fill="#FFD0C0"/>
<path d="M86.0066 58.754C87.0246 58.997 90.6566 59.959 90.4356 61.286C90.1676 62.889 86.5056 59.291 86.0066 58.754ZM86.0066 58.754C86.5246 59.373 87.7906 63.343 86.1806 63.167C84.7936 63.016 85.1756 59.05 86.0066 58.754Z" stroke="#373814" stroke-width="0.5" stroke-miterlimit="10" stroke-linecap="round" stroke-linejoin="round"/>
<path d="M84.2915 58.652C84.2915 58.652 85.9335 58.883 87.4405 58.665C88.1555 58.561 86.1165 59.213 84.2915 58.652ZM84.2915 58.652C84.2915 58.652 86.2615 59.551 87.3865 59.222" stroke="#373814" stroke-width="0.5" stroke-miterlimit="10" stroke-linecap="round" stroke-linejoin="round"/>
<path d="M85.8305 58.973L58.0815 151.573" stroke="#373814" stroke-width="0.5" stroke-miterlimit="10" stroke-linecap="round" stroke-linejoin="round"/>
<path opacity="0.25" d="M68.8085 27.459C69.8665 37.093 73.8205 49.135 81.7505 54.033C81.9565 54.16 82.1725 54.28 82.3885 54.395C80.1815 54.232 78.1605 53.726 76.5385 52.874C68.9035 48.865 65.4705 38.404 64.8065 29.953C64.2365 22.746 66.9525 16.664 71.2755 12.786C69.1885 16.733 68.1815 21.752 68.8085 27.459Z" fill="white"/>
<path d="M67.5996 29.822C63.3806 25.379 57.8506 22.831 52.4266 22.831C48.8146 22.831 36.7556 24.241 33.2436 42.387C31.1486 53.201 32.6486 62.943 37.3566 69.114C40.6176 73.391 46.0866 76.17 51.8896 76.585C51.5596 77.455 51.2976 78.385 51.6226 78.839C52.0836 79.53 54.0436 79.415 54.7346 79.185C56.0076 78.628 55.9616 77.576 55.5846 76.523C64.5146 75.57 74.2816 68.68 75.1646 51.615C75.6056 43.163 72.9176 35.422 67.5996 29.822Z" fill="#A662B7"/>
<path opacity="0.25" d="M40.5335 59.107C38.7665 49.626 38.7475 36.95 43.9915 29.809C44.1285 29.623 44.2735 29.443 44.4225 29.265C42.6325 30.113 41.0915 31.228 39.9795 32.545C34.7355 38.748 34.7545 49.759 36.5215 57.994C38.0275 65.017 41.9555 69.94 46.6145 72.265C43.7965 69.173 41.5805 64.724 40.5335 59.107Z" fill="white"/>
<path d="M67.1216 41.132C67.8946 40.057 68.1636 38.646 67.8796 37.159C67.3906 34.595 65.9896 33.217 64.1356 33.473H64.1346C63.2556 33.594 62.4476 34.097 62.0756 34.756C61.3216 36.082 61.6186 38.212 62.1476 39.763C62.7926 41.653 64.1876 42.595 65.4326 42.424C66.1656 42.323 66.5836 41.879 67.1216 41.132Z" fill="#DFB8E8"/>
<path d="M95.4605 58.861C92.4685 55.574 86.7975 53.451 81.0155 53.45C81.0155 53.45 81.0135 53.45 81.0115 53.45C68.8105 53.45 60.9995 61.96 60.1185 76.216C59.6065 84.487 62.6005 91.93 68.5505 97.175C71.9675 100.187 76.0665 102.134 80.1055 102.722C79.8145 103.552 79.5995 104.336 80.0895 104.897C80.8835 105.692 83.7965 105.029 84.7225 104.764C84.5135 104.137 84.4115 103.474 84.2495 102.832C91.6375 102.077 98.3175 95.658 100.635 85.647C102.668 76.851 101.5 65.487 95.4605 58.861Z" fill="#FF5F7E"/>
<path d="M93.3705 67.133C94.3395 66.327 94.8265 65.185 94.7435 63.915C94.5985 61.726 93.3285 60.419 91.3415 60.419C90.4005 60.419 89.4775 60.745 88.9895 61.25C88.0075 62.268 88.0095 64.073 88.3415 65.424C88.7455 67.07 90.0755 68.014 91.4095 68.014C92.1945 68.014 92.6965 67.694 93.3705 67.133Z" fill="#FFE1E8"/>
<path opacity="0.25" d="M68.2654 85.775C66.4974 77.478 66.4784 66.385 71.7234 60.136C71.8594 59.974 72.0054 59.816 72.1544 59.66C70.3654 60.401 68.8234 61.377 67.7114 62.53C62.4674 67.958 62.4864 77.594 64.2534 84.801C65.7604 90.946 69.6874 95.254 74.3464 97.29C71.5284 94.584 69.3124 90.69 68.2654 85.775Z" fill="white"/>
<path d="M81.7206 102.981C82.7676 102.983 86.5256 103.082 86.6156 104.425C86.7246 106.045 82.3306 103.389 81.7206 102.981ZM81.7206 102.981C82.3696 103.464 84.5166 107.037 82.9086 107.236C81.5246 107.408 80.9826 103.461 81.7206 102.981Z" stroke="#373814" stroke-width="0.5" stroke-miterlimit="10" stroke-linecap="round" stroke-linejoin="round"/>
<path d="M80.0315 102.792C80.0315 102.792 82.2455 103.077 84.2945 102.91C85.2675 102.83 82.4805 103.413 80.0315 102.792ZM80.0315 102.792C80.0315 102.792 82.6655 103.756 84.1985 103.465" stroke="#373814" stroke-width="0.5" stroke-miterlimit="10" stroke-linecap="round" stroke-linejoin="round"/>
<path d="M81.7206 102.981L58.0815 151.573" stroke="#373814" stroke-width="0.5" stroke-miterlimit="10" stroke-linecap="round" stroke-linejoin="round"/>
<path d="M53.9137 76.726C54.9337 76.494 58.6167 75.749 59.0057 77.038C59.4757 78.593 54.5987 76.988 53.9137 76.726ZM53.9137 76.726C54.6527 77.052 57.5447 80.053 56.0217 80.607C54.7127 81.085 53.2987 77.36 53.9137 76.726Z" stroke="#373814" stroke-width="0.5" stroke-miterlimit="10" stroke-linecap="round" stroke-linejoin="round"/>
<path d="M51.6206 76.659C51.6206 76.659 53.8506 76.767 55.8796 76.437C56.8416 76.279 54.1116 77.083 51.6206 76.659ZM51.6206 76.659C51.6206 76.659 54.3216 77.41 55.8286 76.997" stroke="#373814" stroke-width="0.5" stroke-miterlimit="10" stroke-linecap="round" stroke-linejoin="round"/>
<path d="M53.8496 77.506L58.0816 151.573" stroke="#373814" stroke-width="0.5" stroke-miterlimit="10" stroke-linecap="round" stroke-linejoin="round"/>
<path d="M25.7367 58.588C26.6837 59.032 30.0467 60.708 29.5617 61.964C28.9757 63.48 26.1147 59.215 25.7367 58.588ZM25.7367 58.588C26.1197 59.299 26.5557 63.444 25.0137 62.946C23.6867 62.518 24.8617 58.711 25.7367 58.588Z" stroke="#373814" stroke-width="0.5" stroke-miterlimit="10" stroke-linecap="round" stroke-linejoin="round"/>
<path d="M23.4436 58.522C23.4436 58.522 26.2946 58.792 28.9266 58.609C30.1756 58.521 26.5996 59.125 23.4436 58.522ZM23.4436 58.522C23.4436 58.522 26.8396 59.466 28.8106 59.164" stroke="#373814" stroke-width="0.5" stroke-miterlimit="10" stroke-linecap="round" stroke-linejoin="round"/>
<path d="M25.6716 59.369L58.0816 151.573" stroke="#373814" stroke-width="0.5" stroke-miterlimit="10" stroke-linecap="round" stroke-linejoin="round"/>
<path d="M36.5256 97.656L58.0816 151.573" stroke="#373814" stroke-width="0.5" stroke-miterlimit="10" stroke-linecap="round" stroke-linejoin="round"/>
<path d="M36.5256 97.656C35.4786 97.658 31.7217 97.757 31.6307 99.1C31.5217 100.721 35.9146 98.065 36.5256 97.656ZM36.5256 97.656C35.8766 98.139 33.7307 101.712 35.3377 101.911C36.7217 102.084 37.2646 98.137 36.5256 97.656Z" stroke="#373814" stroke-width="0.5" stroke-miterlimit="10" stroke-linecap="round" stroke-linejoin="round"/>
<path d="M35.4556 97.656C35.4556 97.656 37.2886 97.919 38.9796 97.732C39.7836 97.643 37.4856 98.253 35.4556 97.656ZM35.4556 97.656C35.4556 97.656 37.6406 98.594 38.9056 98.288" stroke="#373814" stroke-width="0.5" stroke-miterlimit="10" stroke-linecap="round" stroke-linejoin="round"/>
<path d="M55.2215 229.079C53.2215 210.079 54.5545 189.746 56.7215 176.246C58.8885 162.746 58.0815 151.574 58.0815 151.574" stroke="#373814" stroke-width="0.5" stroke-miterlimit="10" stroke-linecap="round" stroke-linejoin="round"/>
<path d="M61.0886 217.079C63.0886 201.02 61.7556 183.836 59.5886 172.427C57.4216 161.016 58.2286 151.574 58.2286 151.574" stroke="#373814" stroke-width="0.5" stroke-miterlimit="10" stroke-linecap="round" stroke-linejoin="round"/>
<path d="M59.3445 229.079C60.1545 210.079 61.6145 189.746 60.7365 176.246C59.6655 159.767 57.9405 159.932 58.1845 151.574" stroke="#373814" stroke-width="0.5" stroke-miterlimit="10" stroke-linecap="round" stroke-linejoin="round"/>
<path d="M58.1844 151.573C58.1844 151.573 56.6544 161.91 56.9074 171.506C57.6304 198.942 56.2955 204.388 54.9395 213.654" stroke="#373814" stroke-width="0.5" stroke-miterlimit="10" stroke-linecap="round" stroke-linejoin="round"/>
<path d="M56.9664 217.079C56.1554 201.02 56.6954 183.836 57.5734 172.427C58.4514 161.016 58.1254 151.574 58.1254 151.574" stroke="#373814" stroke-width="0.5" stroke-miterlimit="10" stroke-linecap="round" stroke-linejoin="round"/>
</svg>
